<svg xmlns="http://www.w3.org/2000/svg" viewBox="0 0 1920 1080">
  <title>Artboard 1</title>
  <rect width="1920" height="1080" style="fill: #fff"/>
  <g>
    <rect x="1272.03" y="197.8" width="816.22" height="50.52" style="fill: #0fea96;opacity: 0.13"/>
    <rect x="1331.19" y="509.53" width="673.98" height="50.52" transform="translate(2202.96 -1133.39) rotate(90)" style="fill: #0fea96;opacity: 0.13"/>
    <g style="opacity: 0.13">
      <path d="M1740.92,223.25a69.42,69.42,0,0,1-138.84,0v-.19a69.51,69.51,0,0,1,65.69-69.13c1.24-.07,2.48-.1,3.73-.1.67,0,1.33,0,2,0A69.5,69.5,0,0,1,1740.92,223.25Z" style="fill: #fff"/>
    </g>
    <g style="opacity: 0.13">
      <path d="M1470.77,293.51H1345.33a101.33,101.33,0,1,0-73,31.06q5,0,9.89-.48h188.56a15.29,15.29,0,1,0,0-30.58Zm-198.45-.84a69.42,69.42,0,1,1,69.42-69.42A69.5,69.5,0,0,1,1272.32,292.67Z"/>
    </g>
    <g style="opacity: 0.13">
      <path d="M1738.26,856a69.4,69.4,0,1,1-2.29-17.7,64.63,64.63,0,0,1,1.44,6.86A69.14,69.14,0,0,1,1738.26,856Z" style="fill: #fff"/>
      <path d="M1769.21,842.08V449.71a16.62,16.62,0,1,0-33.24,0V780.14a101.2,101.2,0,1,0,33.24,61.94Zm-100.37,83.37A69.42,69.42,0,1,1,1736,838.33a64.63,64.63,0,0,1,1.44,6.86,69.43,69.43,0,0,1-68.57,80.26Z"/>
    </g>
    <g style="opacity: 0.13">
      <path d="M1603,223.06v11.69a69.16,69.16,0,0,1-1-11.5v-.19Z"/>
    </g>
    <g style="opacity: 0.13">
      <path d="M1737.41,845.19H1736v-6.86A64.63,64.63,0,0,1,1737.41,845.19Z"/>
    </g>
    <path d="M1828.36,152.6H2071V122H1828.36a15.29,15.29,0,0,0-15.29,15.29h0A15.29,15.29,0,0,0,1828.36,152.6Z" style="opacity: 0.13"/>
    <path d="M1936,293.51H1744.5a101.33,101.33,0,0,0-73-171.59c-1.49,0-3,0-4.43.1H1430.89a15.29,15.29,0,0,0-15.29,15.29v1.33a15.29,15.29,0,0,0,15.29,15.29h166.72a101,101,0,0,0-27.43,69.13h-.38v464.6a16.62,16.62,0,1,0,33.24,0V297.93a100.88,100.88,0,0,0,68.46,26.64q5,0,9.89-.48H1936a15.29,15.29,0,1,0,0-30.58Zm-264.54-.84a69.43,69.43,0,0,1-69.42-69.42v-.19a69.51,69.51,0,0,1,65.69-69.13c1.24-.07,2.48-.1,3.73-.1.67,0,1.33,0,2,0a69.42,69.42,0,0,1-2,138.81Z" style="opacity: 0.13"/>
    <path d="M1673.49,153.86v.07h-5.72c1.24-.07,2.48-.1,3.73-.1C1672.17,153.83,1672.83,153.84,1673.49,153.86Z" style="opacity: 0.13"/>
    <circle cx="1272.03" cy="223.06" r="41.21" style="fill: #0fea96;opacity: 0.13"/>
    <circle cx="1673.49" cy="223.06" r="41.21" style="fill: #0fa6f2;opacity: 0.13"/>
    <circle cx="1670.84" cy="855.83" r="41.21" style="fill: #0fa6f2;opacity: 0.13"/>
  </g>
  <g>
    <text transform="translate(716.18 571.22)" style="font-size: 189.47836303710938px;font-family: Now-Regular, Now"><tspan style="letter-spacing: -0.05999973908115011em">T</tspan><tspan x="86.68" y="0" style="letter-spacing: 0.0000025769762952003654em">echn</tspan><tspan x="529.58" y="0" style="letter-spacing: -0.05999716210485491em">oT</tspan><tspan x="724.74" y="0">ec</tspan></text>
    <circle cx="454" cy="522" r="158" style="fill: none;stroke: #999;stroke-miterlimit: 10;stroke-width: 14px"/>
    <rect x="314.63" y="447.6" width="287.84" height="17.81" style="fill: #0fea96"/>
    <rect x="335.49" y="557.53" width="237.68" height="17.81" transform="translate(1020.77 112.11) rotate(90)" style="fill: #0fea96"/>
    <g>
      <path d="M455.5,486.68a30.11,30.11,0,1,1,30.11-30.11A30.14,30.14,0,0,1,455.5,486.68Z" style="fill: #fff"/>
      <path d="M455.5,432.09A24.48,24.48,0,1,1,431,456.57a24.51,24.51,0,0,1,24.48-24.48m0-11.25a35.73,35.73,0,1,0,35.73,35.73,35.73,35.73,0,0,0-35.73-35.73Z"/>
    </g>
    <g>
      <path d="M596.27,486.68a30.11,30.11,0,1,1,30.11-30.11A30.14,30.14,0,0,1,596.27,486.68Z" style="fill: #fff"/>
      <path d="M596.27,432.09a24.48,24.48,0,1,1-24.48,24.48,24.51,24.51,0,0,1,24.48-24.48m0-11.25A35.73,35.73,0,1,0,632,456.57a35.73,35.73,0,0,0-35.73-35.73Z"/>
    </g>
    <g>
      <path d="M314.73,486.68a30.11,30.11,0,1,1,30.11-30.11A30.14,30.14,0,0,1,314.73,486.68Z" style="fill: #fff"/>
      <path d="M314.73,432.09a24.48,24.48,0,1,1-24.48,24.48,24.51,24.51,0,0,1,24.48-24.48m0-11.25a35.73,35.73,0,1,0,35.73,35.73,35.73,35.73,0,0,0-35.73-35.73Z"/>
    </g>
    <g>
      <path d="M454.56,709.83a30.11,30.11,0,1,1,30.11-30.11A30.14,30.14,0,0,1,454.56,709.83Z" style="fill: #fff"/>
      <path d="M454.56,655.24a24.48,24.48,0,1,1-24.48,24.48,24.51,24.51,0,0,1,24.48-24.48m0-11.25a35.73,35.73,0,1,0,35.73,35.73A35.73,35.73,0,0,0,454.56,644Z"/>
    </g>
    <g>
      <path d="M425.5,620.58a.23.23,0,0,1-.23-.23V462.13h.47V620.35A.23.23,0,0,1,425.5,620.58Z" style="fill: #fff"/>
      <path d="M431.36,456.51H419.64V620.35a5.86,5.86,0,1,0,11.72,0V456.51Z"/>
    </g>
    <g>
      <path d="M483.86,670.28V536.44a.23.23,0,1,1,.47,0V670.28Z" style="fill: #fff"/>
      <path d="M484.1,530.58a5.86,5.86,0,0,0-5.86,5.86V675.9H490V536.44a5.86,5.86,0,0,0-5.86-5.86Z"/>
    </g>
    <path d="M510.82,431.66h85.55V420.88H510.82a5.39,5.39,0,0,0-5.39,5.39h0A5.39,5.39,0,0,0,510.82,431.66Z"/>
    <path d="M370.65,432.13H456.2V420.88H370.65a5.39,5.39,0,0,0-5.39,5.39v.47A5.39,5.39,0,0,0,370.65,432.13Z"/>
    <path d="M384.71,492.13H314.63V481.35h70.08a5.39,5.39,0,0,1,5.39,5.39h0A5.39,5.39,0,0,1,384.71,492.13Z"/>
    <path d="M548.79,492.13H454.33V481.35h94.46a5.39,5.39,0,0,1,5.39,5.39h0A5.39,5.39,0,0,1,548.79,492.13Z"/>
    <circle cx="314.63" cy="456.51" r="14.53" style="fill: #0fea96"/>
    <circle cx="1305.63" cy="525.51" r="19.37" style="fill: #0fea96"/>
    <circle cx="1621.63" cy="525.51" r="19.37" style="fill: #0fa6f2"/>
    <circle cx="983.63" cy="525.51" r="19.37" style="fill: #0fa6f2"/>
    <circle cx="596.37" cy="456.51" r="14.53" style="fill: #0fea96"/>
    <circle cx="456.2" cy="456.51" r="14.53" style="fill: #0fa6f2"/>
    <circle cx="455.27" cy="679.65" r="14.53" style="fill: #0fa6f2"/>
    <text transform="translate(742 670.69)" style="opacity: 0.61;font-size: 76.386474609375px;font-family: Now-Regular, Now">IT Solutions PVT LTD</text>
  </g>
</svg>
